<svg id="Layer_1" data-name="Layer 1" xmlns="http://www.w3.org/2000/svg" viewBox="0 0 42 58"><defs><style>.cls-1{fill:#53e570;fill-rule:evenodd;opacity:0.6;}</style></defs><path class="cls-1" d="M12,18H24V36h6v4H18V22H12ZM6,16V12H0V0H36V6h6V42H36v4h6V58H6V52H0V16ZM34,2H2v8H26V34h8ZM6,8A2,2,0,1,0,4,6,2,2,0,0,0,6,8Zm8,0a2,2,0,1,0-2-2A2,2,0,0,0,14,8Zm8,0a2,2,0,1,0-2-2A2,2,0,0,0,22,8Zm8,0a2,2,0,1,0-2-2A2,2,0,0,0,30,8Zm0,8a2,2,0,1,0-2-2A2,2,0,0,0,30,16Zm0,8a2,2,0,1,0-2-2A2,2,0,0,0,30,24Zm0,8a2,2,0,1,0-2-2A2,2,0,0,0,30,32ZM2,50H34V42H10V18H2Zm28-6a2,2,0,1,0,2,2A2,2,0,0,0,30,44Zm-8,0a2,2,0,1,0,2,2A2,2,0,0,0,22,44Zm-8,0a2,2,0,1,0,2,2A2,2,0,0,0,14,44ZM6,44a2,2,0,1,0,2,2A2,2,0,0,0,6,44Zm0-8a2,2,0,1,0,2,2A2,2,0,0,0,6,36Zm0-8a2,2,0,1,0,2,2A2,2,0,0,0,6,28Zm0-8a2,2,0,1,0,2,2A2,2,0,0,0,6,20Z" transform="translate(0 0)"/></svg>